<svg xmlns="http://www.w3.org/2000/svg" viewBox="0 0 1024 1024" id="Facebook">
  <path d="M903.5 512c0 19.1-1.3 38.1-3.8 57 .4-2.7.7-5.3 1.1-8-5 36.6-14.8 72.4-29.1 106.5l3-7.2c-8.2 19.5-17.9 38.4-29 56.4-5.5 9-11.3 17.7-17.5 26.3-1.5 2.1-3.1 4.2-4.7 6.3-.8 1.1-1.6 2.1-2.4 3.1-3.2 4.3 4.8-6.1 1.5-1.9-3.3 4.1-6.5 8.2-9.9 12.2-13.5 16-28.3 31-44 44.8-3.9 3.5-7.9 6.8-12 10.2-1.7 1.4-3.4 2.7-5.1 4.1-1.7 1.4-6 4.5 1.9-1.5-1.4 1.1-2.8 2.1-4.2 3.2-8.4 6.3-17.1 12.3-25.9 18-20.1 12.8-41.2 23.9-63.1 33.2l7.2-3c-34.1 14.3-69.9 24-106.5 29.1 2.7-.4 5.3-.7 8-1.1-37.8 5-76.1 5-113.9 0 2.7.4 5.3.7 8 1.1-36.6-5-72.4-14.8-106.5-29.1l7.2 3c-19.5-8.2-38.4-17.9-56.4-29-9-5.5-17.7-11.3-26.3-17.5-2.1-1.5-4.2-3.1-6.3-4.7-1.1-.8-2.1-1.6-3.1-2.4-4.3-3.2 6.1 4.8 1.9 1.5-4.1-3.3-8.2-6.5-12.2-9.9-16-13.5-31-28.3-44.8-44-3.5-3.9-6.8-7.9-10.2-12-1.4-1.7-2.7-3.4-4.1-5.1-1.4-1.7-4.5-6 1.5 1.9-1.1-1.4-2.1-2.8-3.2-4.2-6.3-8.4-12.3-17.1-18-25.9-12.8-20.1-23.9-41.2-33.2-63.1l3 7.2c-14.3-34.1-24-69.9-29.1-106.5.4 2.7.7 5.3 1.1 8-5-37.8-5-76.1 0-113.9-.4 2.7-.7 5.3-1.1 8 5-36.6 14.8-72.4 29.1-106.5l-3 7.2c8.2-19.5 17.9-38.4 29-56.4 5.5-9 11.3-17.7 17.5-26.3 1.5-2.1 3.1-4.2 4.7-6.3.8-1.1 1.6-2.1 2.4-3.1 3.2-4.3-4.8 6.1-1.5 1.9 3.3-4.1 6.5-8.2 9.9-12.2 13.5-16 28.3-31 44-44.8 3.9-3.5 7.9-6.8 12-10.2 1.7-1.4 3.4-2.7 5.1-4.1 1.7-1.4 6-4.5-1.9 1.5 1.4-1.1 2.8-2.1 4.2-3.2 8.4-6.3 17.1-12.3 25.9-18 20.1-12.8 41.2-23.9 63.1-33.2l-7.2 3c34.1-14.3 69.9-24 106.5-29.1-2.7.4-5.3.7-8 1.1 37.8-5 76.1-5 113.9 0-2.7-.4-5.3-.7-8-1.1 36.6 5 72.4 14.8 106.5 29.1l-7.2-3c19.5 8.2 38.4 17.9 56.4 29 9 5.5 17.7 11.3 26.3 17.5 2.1 1.5 4.2 3.1 6.3 4.7 1.1.8 2.1 1.6 3.1 2.4 4.3 3.2-6.1-4.8-1.9-1.5 4.1 3.3 8.2 6.5 12.2 9.9 16 13.5 31 28.3 44.8 44 3.5 3.9 6.8 7.9 10.2 12 1.4 1.7 2.7 3.4 4.1 5.1 1.4 1.7 4.5 6-1.5-1.9 1.1 1.4 2.1 2.8 3.2 4.2 6.3 8.4 12.3 17.1 18 25.9 12.8 20.1 23.9 41.2 33.2 63.1l-3-7.2c14.3 34.1 24 69.9 29.1 106.5-.4-2.7-.7-5.3-1.1-8 2.5 18.8 3.8 37.8 3.8 56.9 0 15.7 13.8 30.7 30 30 16.2-.7 30-13.2 30-30-.2-92.5-28.7-184.9-82.7-260.3S751.9 119 664.8 87.1C577.1 55 478.3 52 388.5 77.6c-86.5 24.6-165.8 75.8-223.1 145.2C135 259.7 111 300 92.9 344.2c-17.7 43.2-27.7 89.1-31.2 135.5-7 92.4 15.9 187 64 266.1 46.5 76.5 116.2 139.5 197.9 176.4 44.6 20.1 90.9 32.8 139.6 38.4 46.9 5.4 94.5 2.7 140.7-6.6 88.5-17.9 171.4-64.2 233.8-129.4 63-65.7 106.3-150.8 120-241 3.6-23.8 5.8-47.7 5.9-71.7 0-15.7-13.8-30.7-30-30-16.3.8-30 13.3-30.1 30.1z" fill="#3b82f6" class="color000000 svgShape"></path>
  <path d="M514.2 711.2V444.1c0-14.4-1.1-29.5.8-43.9-.4 2.7-.7 5.3-1.1 8 1-6.7 2.8-13.2 5.4-19.4l-3 7.2c1.9-4.5 4.2-8.7 6.9-12.8.2-.2 2-3.2 2.3-3.2-.2 0-5.4 6.6-1.9 2.5 1.6-1.8 3.1-3.6 4.9-5.3 1.5-1.5 3.2-3 4.8-4.4 2-1.7 5.5-3.2-2 1.4 1.1-.7 2.1-1.5 3.2-2.3 4-2.7 8.3-4.9 12.8-6.9l-7.2 3c6.3-2.6 12.7-4.4 19.4-5.4-2.7.4-5.3.7-8 1.1 9.5-1.3 19.3-.8 28.9-.8h25.7c15.7 0 30.7-13.8 30-30-.7-16.3-13.2-30-30-30h-42.5c-30.7.1-62 12.8-82.1 36.6-17.5 20.7-27.3 45.7-27.3 73V647c0 21.1-.4 42.3 0 63.4v1c0 15.7 13.8 30.7 30 30 16.3-1 30-13.4 30-30.2z" fill="#3b82f6" class="color000000 svgShape"></path>
  <path d="M581.1 473.7H399.8c-15.7 0-30.7 13.8-30 30 .7 16.3 13.2 30 30 30H581.1c15.7 0 30.7-13.8 30-30-.7-16.3-13.2-30-30-30z" fill="#3b82f6" class="color000000 svgShape"></path>
</svg>
